<svg xmlns="http://www.w3.org/2000/svg" xmlns:xlink="http://www.w3.org/1999/xlink" contentStyleType="text/css" data-diagram-type="CLASS" height="447px" preserveAspectRatio="none" style="width:315px;height:447px;background:#FFFFFF;" version="1.1" viewBox="0 0 315 447" width="315px" zoomAndPan="magnify"><defs/><g><!--class Transport--><g class="entity" data-entity="Transport" data-source-line="8" data-uid="ent0002" id="entity_Transport"><rect fill="#FFFFFF" height="325.0469" rx="2.5" ry="2.5" style="stroke:#555555;stroke-width:0.5;" width="301.3174" x="7" y="7"/><rect fill="#808080" height="32" rx="2.5" ry="2.5" style="stroke:#808080;stroke-width:0.5;" width="301.3174" x="7" y="7"/><rect fill="#808080" height="2.5" style="stroke:#808080;stroke-width:0.5;" width="301.3174" x="7" y="36.5"/><rect fill="none" height="325.0469" rx="2.5" ry="2.5" style="stroke:#555555;stroke-width:0.5;" width="301.3174" x="7" y="7"/><ellipse cx="119.5332" cy="23" fill="#ADD1B2" rx="11" ry="11" style="stroke:#181818;stroke-width:1;"/><path d="M122.502,28.6406 Q121.9238,28.9375 121.2832,29.0781 Q120.6426,29.2344 119.9395,29.2344 Q117.4395,29.2344 116.1113,27.5938 Q114.7988,25.9375 114.7988,22.8125 Q114.7988,19.6875 116.1113,18.0313 Q117.4395,16.375 119.9395,16.375 Q120.6426,16.375 121.2832,16.5313 Q121.9395,16.6875 122.502,16.9844 L122.502,19.7031 Q121.877,19.125 121.2832,18.8594 Q120.6895,18.5781 120.0645,18.5781 Q118.7207,18.5781 118.0332,19.6563 Q117.3457,20.7188 117.3457,22.8125 Q117.3457,24.9063 118.0332,25.9844 Q118.7207,27.0469 120.0645,27.0469 Q120.6895,27.0469 121.2832,26.7813 Q121.877,26.5 122.502,25.9219 L122.502,28.6406 Z " fill="#000000"/><text fill="#000000" font-family="sans-serif" font-size="14" lengthAdjust="spacing" textLength="67.751" x="140.0332" y="27.8467">Transport</text><line style="stroke:#555555;stroke-width:0.5;" x1="8" x2="307.3174" y1="39" y2="39"/><ellipse cx="18" cy="52.6484" fill="none" rx="3" ry="3" style="stroke:#038048;stroke-width:1;"/><text fill="#000000" font-family="sans-serif" font-size="14" lengthAdjust="spacing" textLength="162.9414" x="27" y="55.9951">Dependencies : Cluster</text><rect fill="none" height="6" style="stroke:#C82930;stroke-width:1;" width="6" x="15" y="65.9453"/><text fill="#000000" font-family="sans-serif" font-size="14" lengthAdjust="spacing" textLength="118.5967" x="27" y="72.292">Notifier : NoType</text><rect fill="none" height="6" style="stroke:#C82930;stroke-width:1;" width="6" x="15" y="82.2422"/><text fill="#000000" font-family="sans-serif" font-size="14" lengthAdjust="spacing" textLength="209.1523" x="27" y="88.5889">Sweep Configuration : Cluster</text><line style="stroke:#555555;stroke-width:0.5;" x1="8" x2="307.3174" y1="95.8906" y2="95.8906"/><rect fill="#F24D5C" height="6" style="stroke:#C82930;stroke-width:1;" width="6" x="15" y="106.5391"/><text fill="#000000" font-family="sans-serif" font-size="14" lengthAdjust="spacing" text-decoration="underline" textLength="249.4365" x="27" y="112.8857">Calculate R and G (Four Terminal)()</text><rect fill="#F24D5C" height="6" style="stroke:#C82930;stroke-width:1;" width="6" x="15" y="122.8359"/><text fill="#000000" font-family="sans-serif" font-size="14" lengthAdjust="spacing" text-decoration="underline" textLength="246.7568" x="27" y="129.1826">Calculate R and G (Two Terminal)()</text><rect fill="#F24D5C" height="6" style="stroke:#C82930;stroke-width:1;" width="6" x="15" y="139.1328"/><text fill="#000000" font-family="sans-serif" font-size="14" lengthAdjust="spacing" text-decoration="underline" textLength="149.9326" x="27" y="145.4795">Calculate R and G 2()</text><rect fill="#F24D5C" height="6" style="stroke:#C82930;stroke-width:1;" width="6" x="15" y="155.4297"/><text fill="#000000" font-family="sans-serif" font-size="14" lengthAdjust="spacing" text-decoration="underline" textLength="212.0781" x="27" y="161.7764">Graph R and G vs Parameter()</text><rect fill="#F24D5C" height="6" style="stroke:#C82930;stroke-width:1;" width="6" x="15" y="171.7266"/><text fill="#000000" font-family="sans-serif" font-size="14" lengthAdjust="spacing" text-decoration="underline" textLength="201.1953" x="27" y="178.0732">Graph Lockin vs Parameter()</text><rect fill="#F24D5C" height="6" style="stroke:#C82930;stroke-width:1;" width="6" x="15" y="188.0234"/><text fill="#000000" font-family="sans-serif" font-size="14" lengthAdjust="spacing" text-decoration="underline" textLength="275.3174" x="27" y="194.3701">Results (Dictionary) to X and Y Arrays()</text><rect fill="#F24D5C" height="6" style="stroke:#C82930;stroke-width:1;" width="6" x="15" y="204.3203"/><text fill="#000000" font-family="sans-serif" font-size="14" lengthAdjust="spacing" text-decoration="underline" textLength="223.2002" x="27" y="210.667">Results (2D) to X and Y Arrays()</text><rect fill="#F24D5C" height="6" style="stroke:#C82930;stroke-width:1;" width="6" x="15" y="220.6172"/><text fill="#000000" font-family="sans-serif" font-size="14" lengthAdjust="spacing" text-decoration="underline" textLength="162.5518" x="27" y="226.9639">Exec State to Append()</text><rect fill="#F24D5C" height="6" style="stroke:#C82930;stroke-width:1;" width="6" x="15" y="236.9141"/><text fill="#000000" font-family="sans-serif" font-size="14" lengthAdjust="spacing" text-decoration="underline" textLength="102.2383" x="27" y="243.2607">State History()</text><ellipse cx="18" cy="256.2109" fill="#84BE84" rx="3" ry="3" style="stroke:#038048;stroke-width:1;"/><text fill="#000000" font-family="sans-serif" font-size="14" lengthAdjust="spacing" text-decoration="underline" textLength="149.167" x="27" y="259.5576">Lockin_AIWFM_time()</text><ellipse cx="18" cy="272.5078" fill="#84BE84" rx="3" ry="3" style="stroke:#038048;stroke-width:1;"/><text fill="#000000" font-family="sans-serif" font-size="14" lengthAdjust="spacing" text-decoration="underline" textLength="150.6846" x="27" y="275.8545">Sweep_AIWFM_time()</text><ellipse cx="18" cy="288.8047" fill="#84BE84" rx="3" ry="3" style="stroke:#038048;stroke-width:1;"/><text fill="#000000" font-family="sans-serif" font-size="14" lengthAdjust="spacing" text-decoration="underline" textLength="94.4863" x="27" y="292.1514">Lockin_time()</text><ellipse cx="18" cy="305.1016" fill="#84BE84" rx="3" ry="3" style="stroke:#038048;stroke-width:1;"/><text fill="#000000" font-family="sans-serif" font-size="14" lengthAdjust="spacing" text-decoration="underline" textLength="107.7139" x="27" y="308.4482">Lockin_sweep()</text><ellipse cx="18" cy="321.3984" fill="#84BE84" rx="3" ry="3" style="stroke:#038048;stroke-width:1;"/><text fill="#000000" font-family="sans-serif" font-size="14" lengthAdjust="spacing" text-decoration="underline" textLength="119.1914" x="27" y="324.7451">THz_TimeDelay()</text></g><!--class Control Experiment--><g class="entity" data-entity="Control Experiment" data-source-line="28" data-uid="ent0003" id="entity_Control Experiment"><rect fill="#FFFFFF" height="48" rx="2.5" ry="2.5" style="stroke:#555555;stroke-width:0.5;" width="168.2539" x="73.53" y="392.05"/><rect fill="#808080" height="32" rx="2.5" ry="2.5" style="stroke:#808080;stroke-width:0.5;" width="168.2539" x="73.53" y="392.05"/><rect fill="#808080" height="2.5" style="stroke:#808080;stroke-width:0.5;" width="168.2539" x="73.53" y="421.55"/><rect fill="none" height="48" rx="2.5" ry="2.5" style="stroke:#555555;stroke-width:0.5;" width="168.2539" x="73.53" y="392.05"/><ellipse cx="88.53" cy="408.05" fill="#ADD1B2" rx="11" ry="11" style="stroke:#181818;stroke-width:1;"/><path d="M91.4988,413.6906 Q90.9206,413.9875 90.28,414.1281 Q89.6394,414.2844 88.9363,414.2844 Q86.4363,414.2844 85.1081,412.6438 Q83.7956,410.9875 83.7956,407.8625 Q83.7956,404.7375 85.1081,403.0813 Q86.4363,401.425 88.9363,401.425 Q89.6394,401.425 90.28,401.5813 Q90.9363,401.7375 91.4988,402.0344 L91.4988,404.7531 Q90.8738,404.175 90.28,403.9094 Q89.6863,403.6281 89.0613,403.6281 Q87.7175,403.6281 87.03,404.7063 Q86.3425,405.7688 86.3425,407.8625 Q86.3425,409.9563 87.03,411.0344 Q87.7175,412.0969 89.0613,412.0969 Q89.6863,412.0969 90.28,411.8313 Q90.8738,411.55 91.4988,410.9719 L91.4988,413.6906 Z " fill="#000000"/><text fill="#000000" font-family="sans-serif" font-size="14" lengthAdjust="spacing" textLength="136.2539" x="102.53" y="412.8967">Control Experiment</text><line style="stroke:#555555;stroke-width:0.5;" x1="74.53" x2="240.7839" y1="424.05" y2="424.05"/><line style="stroke:#555555;stroke-width:0.5;" x1="74.53" x2="240.7839" y1="432.05" y2="432.05"/></g><!--reverse link Transport to Control Experiment--><g class="link" data-entity-1="Transport" data-entity-2="Control Experiment" data-source-line="28" data-uid="lnk4" id="link_Transport_Control Experiment"><path codeLine="28" d="M157.66,344.27 C157.66,367.53 157.66,376.67 157.66,391.76" fill="none" id="Transport-backto-Control Experiment" style="stroke:#181818;stroke-width:1;"/><polygon fill="#181818" points="157.66,332.27,153.66,338.27,157.66,344.27,161.66,338.27,157.66,332.27" style="stroke:#181818;stroke-width:1;"/></g><!--SRC=[bP9jI-D04CVVxwSOUczQfI32mU6xNX_iWSfX0tglohgPwk9cPvcTdDRIx-vkMhHei7L28Cd-_l_9F4GKyBh26BJ16GRDMeZXJCL7w_DR1KEdO_ojpUCzK-tB8Ra4_9WqyGaZBf6toCycFY8Jyh85Jfhu24nH9uzF2N-Tv4ljq48XtN178bH1QHcDMFBAP1Ve5Anz3CJIWPLQBIowSWt78mpeI_J6OeIpbB6EWlnsthyYiUavjG2kg5W6V3-QFI46699VsFiwzIdbsdM8aZwPDQmgb0VAWg5sfdPQ4Av1-nBEeJkXcg50hgpNhjVj7IWhdkZxgjDsy9nrU7Y3_aVucxk9gOQl-0iogV47uDSOQoSHkYFRZ4FpifV7TDia_0S3PhsCUxIdeuCrusSqC9DSU58CGXvlExc1fZQc3L-s8iURAkU3FpUJoxdO2jknPXFsKbkplK3CRkr4CNsP5qa_GgVpBwkrsjthetuVEcaXXSd1-3aW9zPBHodr2W00]--></g></svg>